solid CaseDesign
facet normal -2.1282765906021867e-16 -1.0 3.884413321399614e-30
  outer loop
    vertex -57.25551072137176 -97.70973839000821 55.00525748282536
    vertex -110.25551072137179 -97.7097383900082 53.50525748282541
    vertex -57.25551072137182 -97.70973839000821 53.50525748282538
  endloop
endfacet
facet normal -2.1282765906021867e-16 -1.0 3.884413321399614e-30
  outer loop
    vertex -110.25551072137179 -97.7097383900082 53.50525748282541
    vertex -57.25551072137176 -97.70973839000821 55.00525748282536
    vertex -110.25551072137179 -97.7097383900082 55.00525748282542
  endloop
endfacet
facet normal -2.1282765906021874e-16 -1.0 -5.486525425204171e-30
  outer loop
    vertex -57.25551072137182 -98.70973839000821 53.50525748282538
    vertex -110.25551072137176 -98.7097383900082 52.00525748282537
    vertex -57.25551072137176 -98.70973839000821 52.00525748282537
  endloop
endfacet
facet normal -2.1282765906021874e-16 -1.0 -5.486525425204171e-30
  outer loop
    vertex -110.25551072137176 -98.7097383900082 52.00525748282537
    vertex -57.25551072137182 -98.70973839000821 53.50525748282538
    vertex -110.25551072137179 -98.7097383900082 53.50525748282541
  endloop
endfacet
facet normal 4.2565531812043763e-16 -8.252294395233568e-32 1.0
  outer loop
    vertex -57.25551072137182 -98.70973839000821 53.50525748282538
    vertex -110.25551072137179 -97.7097383900082 53.50525748282541
    vertex -110.25551072137179 -98.7097383900082 53.50525748282541
  endloop
endfacet
facet normal 4.2565531812043763e-16 -8.252294395233568e-32 1.0
  outer loop
    vertex -110.25551072137179 -97.7097383900082 53.50525748282541
    vertex -57.25551072137182 -98.70973839000821 53.50525748282538
    vertex -57.25551072137182 -97.70973839000821 53.50525748282538
  endloop
endfacet
facet normal -1.0 -1.5039821240255448e-14 2.5066368733758042e-15
  outer loop
    vertex -57.25551072137176 -99.70973839000821 55.00525748282536
    vertex -57.25551072137182 -98.70973839000821 53.50525748282538
    vertex -57.25551072137176 -99.70973839000821 52.00525748282537
  endloop
endfacet
facet normal -1.0 -1.5039821240255448e-14 2.5066368733758042e-15
  outer loop
    vertex -57.25551072137182 -98.70973839000821 53.50525748282538
    vertex -57.25551072137176 -99.70973839000821 55.00525748282536
    vertex -57.25551072137176 -97.70973839000821 55.00525748282536
  endloop
endfacet
facet normal -1.0 -1.5039821240255448e-14 2.5066368733758042e-15
  outer loop
    vertex -57.25551072137182 -98.70973839000821 53.50525748282538
    vertex -57.25551072137176 -97.70973839000821 55.00525748282536
    vertex -57.25551072137182 -97.70973839000821 53.50525748282538
  endloop
endfacet
facet normal -1.0 -1.5039821240255448e-14 2.5066368733758042e-15
  outer loop
    vertex -57.25551072137176 -98.70973839000821 52.00525748282537
    vertex -57.25551072137176 -99.70973839000821 52.00525748282537
    vertex -57.25551072137182 -98.70973839000821 53.50525748282538
  endloop
endfacet
facet normal -1.641015032424181e-16 7.133301116553903e-16 -1.0
  outer loop
    vertex -110.25551072137175 -70.70973839000821 52.00525748282541
    vertex -57.25551072137176 -98.70973839000821 52.00525748282537
    vertex -110.25551072137176 -98.7097383900082 52.00525748282537
  endloop
endfacet
facet normal -1.641015032424181e-16 7.133301116553903e-16 -1.0
  outer loop
    vertex -57.25551072137176 -98.70973839000821 52.00525748282537
    vertex -110.25551072137175 -70.70973839000821 52.00525748282541
    vertex -55.255510721371756 -70.70973839000821 52.005257482825385
  endloop
endfacet
facet normal -1.641015032424181e-16 7.133301116553903e-16 -1.0
  outer loop
    vertex -57.25551072137176 -98.70973839000821 52.00525748282537
    vertex -55.255510721371756 -70.70973839000821 52.005257482825385
    vertex -57.25551072137176 -99.70973839000821 52.00525748282537
  endloop
endfacet
facet normal -1.641015032424181e-16 7.133301116553903e-16 -1.0
  outer loop
    vertex -57.25551072137176 -99.70973839000821 52.00525748282537
    vertex -55.255510721371756 -70.70973839000821 52.005257482825385
    vertex -55.255510721371806 -99.70973839000821 52.00525748282537
  endloop
endfacet
facet normal 1.0 -9.029096834547696e-16 -1.331032853246597e-14
  outer loop
    vertex -55.255510721371806 -99.70973839000821 52.00525748282537
    vertex -55.25551072137172 -71.70973839000824 55.005257482825364
    vertex -55.255510721371756 -99.70973839000823 55.00525748282536
  endloop
endfacet
facet normal 1.0 -9.029096834547696e-16 -1.331032853246597e-14
  outer loop
    vertex -55.25551072137172 -71.70973839000824 55.005257482825364
    vertex -55.255510721371806 -99.70973839000821 52.00525748282537
    vertex -55.25551072137178 -71.70973839000823 53.50525748282541
  endloop
endfacet
facet normal 1.0 -9.029096834547696e-16 -1.331032853246597e-14
  outer loop
    vertex -55.25551072137178 -71.70973839000823 53.50525748282541
    vertex -55.255510721371806 -99.70973839000821 52.00525748282537
    vertex -55.255510721371756 -70.70973839000821 52.005257482825385
  endloop
endfacet
facet normal 1.0 -9.029096834547696e-16 -1.331032853246597e-14
  outer loop
    vertex -55.25551072137178 -71.70973839000823 53.50525748282541
    vertex -55.255510721371756 -70.70973839000821 52.005257482825385
    vertex -55.255510721371756 -70.70973839000823 53.505257482825414
  endloop
endfacet
facet normal -2.819966482547951e-15 -1.0 -1.879977655031921e-15
  outer loop
    vertex -55.255510721371756 -99.70973839000823 55.00525748282536
    vertex -57.25551072137176 -99.70973839000821 52.00525748282537
    vertex -55.255510721371806 -99.70973839000821 52.00525748282537
  endloop
endfacet
facet normal -2.819966482547951e-15 -1.0 -1.879977655031921e-15
  outer loop
    vertex -57.25551072137176 -99.70973839000821 52.00525748282537
    vertex -55.255510721371756 -99.70973839000823 55.00525748282536
    vertex -57.25551072137176 -99.70973839000821 55.00525748282536
  endloop
endfacet
facet normal -1.0 1.4524758869013856e-15 -3.75995531006386e-15
  outer loop
    vertex -110.25551072137175 -71.70973839000817 55.00525748282542
    vertex -110.25551072137179 -97.7097383900082 53.50525748282541
    vertex -110.25551072137179 -97.7097383900082 55.00525748282542
  endloop
endfacet
facet normal -1.0 1.4524758869013856e-15 -3.75995531006386e-15
  outer loop
    vertex -110.25551072137179 -97.7097383900082 53.50525748282541
    vertex -110.25551072137175 -71.70973839000817 55.00525748282542
    vertex -110.25551072137175 -71.7097383900082 53.505257482825414
  endloop
endfacet
facet normal -1.0 1.4524758869013856e-15 -3.75995531006386e-15
  outer loop
    vertex -110.25551072137179 -97.7097383900082 53.50525748282541
    vertex -110.25551072137176 -98.7097383900082 52.00525748282537
    vertex -110.25551072137179 -98.7097383900082 53.50525748282541
  endloop
endfacet
facet normal -1.0 1.4524758869013856e-15 -3.75995531006386e-15
  outer loop
    vertex -110.25551072137176 -98.7097383900082 52.00525748282537
    vertex -110.25551072137179 -97.7097383900082 53.50525748282541
    vertex -110.25551072137175 -70.70973839000821 52.00525748282541
  endloop
endfacet
facet normal -1.0 1.4524758869013856e-15 -3.75995531006386e-15
  outer loop
    vertex -110.25551072137175 -70.70973839000821 52.00525748282541
    vertex -110.25551072137179 -97.7097383900082 53.50525748282541
    vertex -110.25551072137175 -71.7097383900082 53.505257482825414
  endloop
endfacet
facet normal -1.0 1.4524758869013856e-15 -3.75995531006386e-15
  outer loop
    vertex -110.25551072137175 -70.70973839000821 52.00525748282541
    vertex -110.25551072137175 -71.7097383900082 53.505257482825414
    vertex -110.25551072137175 -70.70973839000821 53.505257482825435
  endloop
endfacet
facet normal 8.203538858321113e-16 1.0 -7.519910620128038e-15
  outer loop
    vertex -110.25551072137175 -71.7097383900082 53.505257482825414
    vertex -55.25551072137172 -71.70973839000824 55.005257482825364
    vertex -55.25551072137178 -71.70973839000823 53.50525748282541
  endloop
endfacet
facet normal 8.203538858321113e-16 1.0 -7.519910620128038e-15
  outer loop
    vertex -55.25551072137172 -71.70973839000824 55.005257482825364
    vertex -110.25551072137175 -71.7097383900082 53.505257482825414
    vertex -110.25551072137175 -71.70973839000817 55.00525748282542
  endloop
endfacet
facet normal 1.158485413970541e-15 -2.9136069648984324e-16 1.0
  outer loop
    vertex -110.25551072137179 -97.7097383900082 55.00525748282542
    vertex -76.38051072137176 -92.70973839000824 55.00525748282542
    vertex -110.25551072137175 -71.70973839000817 55.00525748282542
  endloop
endfacet
facet normal 0.033095409152951685 -1.612959360677751e-16 0.9994521969023823
  outer loop
    vertex -76.38051072137176 -92.70973839000824 55.00525748282542
    vertex -110.25551072137179 -97.7097383900082 55.00525748282542
    vertex -57.25551072137176 -97.70973839000821 55.00525748282536
  endloop
endfacet
facet normal 1.158485413970541e-15 -2.9136069648984324e-16 1.0
  outer loop
    vertex -110.25551072137175 -71.70973839000817 55.00525748282542
    vertex -76.38051072137176 -92.70973839000824 55.00525748282542
    vertex -76.38051072137178 -76.70973839000821 55.0052574828254
  endloop
endfacet
facet normal 0.033095409152951685 -1.612959360677751e-16 0.9994521969023823
  outer loop
    vertex -76.38051072137176 -92.70973839000824 55.00525748282542
    vertex -57.25551072137176 -97.70973839000821 55.00525748282536
    vertex -61.380510721371806 -92.70973839000823 55.00525748282538
  endloop
endfacet
facet normal 1.158485413970541e-15 -2.9136069648984324e-16 1.0
  outer loop
    vertex -61.380510721371806 -92.70973839000823 55.00525748282538
    vertex -57.25551072137176 -97.70973839000821 55.00525748282536
    vertex -61.380510721371806 -76.7097383900082 55.005257482825364
  endloop
endfacet
facet normal 1.158485413970541e-15 -2.9136069648984324e-16 1.0
  outer loop
    vertex -55.255510721371756 -99.70973839000823 55.00525748282536
    vertex -57.25551072137176 -97.70973839000821 55.00525748282536
    vertex -57.25551072137176 -99.70973839000821 55.00525748282536
  endloop
endfacet
facet normal 0.03309540915295169 -1.612959360677751e-16 0.9994521969023824
  outer loop
    vertex -76.38051072137178 -76.70973839000821 55.0052574828254
    vertex -55.25551072137172 -71.70973839000824 55.005257482825364
    vertex -110.25551072137175 -71.70973839000817 55.00525748282542
  endloop
endfacet
facet normal 1.158485413970541e-15 -2.9136069648984324e-16 1.0
  outer loop
    vertex -55.25551072137172 -71.70973839000824 55.005257482825364
    vertex -76.38051072137178 -76.70973839000821 55.0052574828254
    vertex -61.380510721371806 -76.7097383900082 55.005257482825364
  endloop
endfacet
facet normal 1.158485413970541e-15 -2.9136069648984324e-16 1.0
  outer loop
    vertex -55.25551072137172 -71.70973839000824 55.005257482825364
    vertex -61.380510721371806 -76.7097383900082 55.005257482825364
    vertex -57.25551072137176 -97.70973839000821 55.00525748282536
  endloop
endfacet
facet normal 1.158485413970541e-15 -2.9136069648984324e-16 1.0
  outer loop
    vertex -55.25551072137172 -71.70973839000824 55.005257482825364
    vertex -57.25551072137176 -97.70973839000821 55.00525748282536
    vertex -55.255510721371756 -99.70973839000823 55.00525748282536
  endloop
endfacet
facet normal 3.076327071870449e-16 1.0 3.7599553100637854e-15
  outer loop
    vertex -110.25551072137175 -70.70973839000821 52.00525748282541
    vertex -55.255510721371756 -70.70973839000823 53.505257482825414
    vertex -55.255510721371756 -70.70973839000821 52.005257482825385
  endloop
endfacet
facet normal 3.076327071870449e-16 1.0 3.7599553100637854e-15
  outer loop
    vertex -55.255510721371756 -70.70973839000823 53.505257482825414
    vertex -110.25551072137175 -70.70973839000821 52.00525748282541
    vertex -110.25551072137175 -70.70973839000821 53.505257482825435
  endloop
endfacet
facet normal 3.076327071870366e-16 -1.6919798895287424e-14 1.0
  outer loop
    vertex -55.25551072137178 -71.70973839000823 53.50525748282541
    vertex -110.25551072137175 -70.70973839000821 53.505257482825435
    vertex -110.25551072137175 -71.7097383900082 53.505257482825414
  endloop
endfacet
facet normal 3.076327071870366e-16 -1.6919798895287424e-14 1.0
  outer loop
    vertex -110.25551072137175 -70.70973839000821 53.505257482825435
    vertex -55.25551072137178 -71.70973839000823 53.50525748282541
    vertex -55.255510721371756 -70.70973839000823 53.505257482825414
  endloop
endfacet
facet normal 0.033095409152951685 -1.612959360677751e-16 0.9994521969023823
  outer loop
    vertex -76.38051072137176 -92.70973839000824 55.00525748282542
    vertex -61.38051072137176 -76.7097383900082 53.005257482825336
    vertex -76.38051072137178 -76.70973839000821 55.0052574828254
  endloop
endfacet
facet normal 0.13216372009102326 2.2996039731089616e-16 0.9912279006826339
  outer loop
    vertex -61.38051072137176 -76.7097383900082 53.005257482825336
    vertex -76.38051072137176 -92.70973839000824 55.00525748282542
    vertex -61.38051072137172 -92.70973839000823 53.005257482825314
  endloop
endfacet
facet normal -1.0 -1.4099832412739345e-15 -3.383959779057407e-14
  outer loop
    vertex -61.380510721371806 -76.7097383900082 55.005257482825364
    vertex -61.38051072137172 -92.70973839000823 53.005257482825314
    vertex -61.380510721371806 -92.70973839000823 55.00525748282538
  endloop
endfacet
facet normal -1.0 -1.4099832412739345e-15 -3.383959779057407e-14
  outer loop
    vertex -61.38051072137172 -92.70973839000823 53.005257482825314
    vertex -61.380510721371806 -76.7097383900082 55.005257482825364
    vertex -61.38051072137176 -76.7097383900082 53.005257482825336
  endloop
endfacet
facet normal -7.519910620127746e-16 1.0 -3.4202989497940503e-29
  outer loop
    vertex -76.38051072137176 -92.70973839000824 55.00525748282542
    vertex -61.380510721371806 -92.70973839000823 55.00525748282538
    vertex -61.38051072137172 -92.70973839000823 53.005257482825314
  endloop
endfacet
facet normal 7.519910620127739e-16 -1.0 1.6032651327160132e-29
  outer loop
    vertex -76.38051072137178 -76.70973839000821 55.0052574828254
    vertex -61.38051072137176 -76.7097383900082 53.005257482825336
    vertex -61.380510721371806 -76.7097383900082 55.005257482825364
  endloop
endfacet
endsolid CaseDesign
